<svg xmlns="http://www.w3.org/2000/svg" viewBox="0 0 64 64" role="img" aria-label="Bitcoin">
  <!-- Only the coin: corners outside the circle stay transparent -->
  <circle cx="32" cy="32" r="29" fill="#f7931a"/>
  <!-- Classic ? mark, rotated 14° (Bitboy logo convention) -->
  <g fill="#ffffff" transform="rotate(14 32 32)">
    <path
      fill-rule="evenodd"
      d="M41.2 27.4c.2-2.5-1.5-3.8-4.1-4.7l.8-3.3-2.1-.5-.8 3.2c-.5-.1-1.1-.3-1.7-.4l.8-3.2-2.1-.5-.8 3.3c-.4-.1-.8-.2-1.2-.3v-.1l-2.9-.7-.5 2.1s1.5.3 1.4.4c.8.2.9.7.9 1.1l-.9 3.7c.1 0 .2 0 .2.1h-.2l-1.3 5.2c-.1.3-.4.7-1 .6.1.1-1.4-.4-1.4-.4l-1 2.3 2.7.7c.5.1 1 .3 1.5.4l-.8 3.4 2.1.5.8-3.3c.6.2 1.1.3 1.6.4l-.8 3.3 2.1.5.8-3.3c3.4.6 6-.4 7.1-2.5 1.8-3.1.1-4.9-1.5-5.5 1.1-.5 1.9-1.4 2.1-2.9zm-3.8 6.4c-.5 2-3.9 1-5.3.7l1.1-4.5c1.4.4 4.8 1.1 4.2 3.8zm.5-6.8c-.5 1.9-3.4.9-4.6.7l1-4.1c1.2.3 4.1.9 3.6 3.4z"
    />
  </g>
</svg>
